<svg width="120" height="120" viewBox="0 0 120 120" fill="none" xmlns="http://www.w3.org/2000/svg">
<path d="M88 64.0004C82.2055 60.1374 31.0005 61.0002 23.0004 64.0001C21.5008 68.4997 26.9997 81.0001 34 88.4996C44.7894 100.058 70.5001 96.4994 83.0001 90.9994C95.5001 85.4994 92.0002 66.6672 88 64.0004Z" fill="#FDDFD5"/>
<path fill-rule="evenodd" clip-rule="evenodd" d="M26 56C26 54.8954 26.8954 54 28 54H62.0592C63.1638 54 64.0592 54.8954 64.0592 56C64.0592 57.1046 63.1638 58 62.0592 58H31.0306C30.4716 58 30.0202 58.4566 30.0379 59.0153C30.1794 63.4949 30.849 70.0998 34.0162 76.0617C35.9894 79.7759 38.9285 83.2284 43.3409 85.7663C47.761 88.3086 53.7767 90 62 90C78.4613 90 86.1964 84.2438 90.01 77.514C93.344 71.6304 93.8924 64.6833 93.9824 59.0072C93.9912 58.4519 93.5416 58 92.9862 58H82C80.8954 58 80 57.1046 80 56C80 54.8954 80.8954 54 82 54H95.851C97.0379 54 98 54.9621 98 56.149C98.0003 62.0844 98.0008 71.5258 93.49 79.486C88.8036 87.7562 79.5387 94 62 94C53.2233 94 46.489 92.1914 41.3466 89.2337C36.1965 86.2716 32.7606 82.2241 30.4838 77.9383C25.9995 69.4974 25.9999 60.0883 26 56.0661C26 56.0439 26 56.0219 26 56Z" fill="#061134"/>
<path fill-rule="evenodd" clip-rule="evenodd" d="M88 40L86.5858 38.5858L70.5858 54.5858L73.4142 57.4142L89.4115 41.4169L89.413 41.4154L89.4142 41.4142L89.4367 41.3923C89.4588 41.3709 89.495 41.3363 89.5443 41.2902C89.6432 41.198 89.794 41.0608 89.9891 40.8935C90.3814 40.5572 90.9417 40.1092 91.6094 39.6641C93.0098 38.7305 94.6012 38 96 38V34C93.3988 34 90.9902 35.2695 89.3906 36.3359C88.5583 36.8908 87.8686 37.4428 87.3859 37.8565C87.1435 38.0642 86.9506 38.2395 86.8151 38.366C86.7472 38.4293 86.6936 38.4806 86.6551 38.5179C86.6358 38.5365 86.6203 38.5516 86.6087 38.563L86.5943 38.5773L86.5893 38.5823L86.5874 38.5842L86.5865 38.585C86.5862 38.5854 86.5858 38.5858 88 40Z" fill="#061134"/>
<path d="M96 34C97.1046 34 98 34.8954 98 36C98 37.1046 97.1046 38 96 38V34Z" fill="#061134"/>
<path fill-rule="evenodd" clip-rule="evenodd" d="M84 100C84 101.105 83.1046 102 82 102H42C40.8954 102 40 101.105 40 100C40 98.8954 40.8954 98 42 98H82C83.1046 98 84 98.8954 84 100Z" fill="#061134"/>
<path fill-rule="evenodd" clip-rule="evenodd" d="M71.8958 20.7882C71.8958 20.7882 71.8944 20.7888 71 19C70.1056 17.2111 70.1041 17.2119 70.1041 17.2119L70.1025 17.2127L70.0989 17.2145L70.0899 17.219L70.0655 17.2315C70.0464 17.2414 70.0216 17.2544 69.9914 17.2704C69.9312 17.3025 69.8497 17.3471 69.7499 17.4041C69.5506 17.518 69.2767 17.6827 68.9531 17.8984C68.3093 18.3276 67.4502 18.9713 66.5858 19.8358C64.8678 21.5538 63 24.2825 63 28C63 29.8694 63.4787 31.3186 64.2965 32.4923C65.0583 33.5857 66.0484 34.3282 66.7727 34.8714L66.7999 34.8918C67.6031 35.4942 68.0954 35.8726 68.4507 36.3563C68.7449 36.7567 69 37.3149 69 38.3335C69 40.4616 67.8595 42.4205 66.4971 43.9721C65.8345 44.7267 65.1671 45.3297 64.6656 45.743C64.4162 45.9485 64.2116 46.104 64.0743 46.2048C64.0057 46.2552 63.9541 46.2917 63.9225 46.3138L63.8904 46.3359C63.8877 46.3378 63.8864 46.3387 63.8864 46.3387L63.8874 46.338L63.8896 46.3365C63.8896 46.3365 63.8906 46.3359 65 48C66.1094 49.6641 66.1105 49.6633 66.1105 49.6633L66.1148 49.6605L66.1223 49.6554L66.144 49.6407C66.1612 49.629 66.1841 49.6132 66.2123 49.5936C66.2685 49.5543 66.3459 49.4993 66.4414 49.4292C66.6321 49.2892 66.8963 49.088 67.2094 48.8299C67.8329 48.3161 68.6655 47.565 69.5029 46.6113C71.1405 44.7463 73 41.8719 73 38.3335C73 36.519 72.5051 35.1189 71.6743 33.988C70.9472 32.9984 70.0076 32.2958 69.3185 31.7805C69.2781 31.7503 69.2386 31.7208 69.2001 31.6919C68.4266 31.1118 67.9321 30.7132 67.5785 30.2057C67.2713 29.7647 67 29.1305 67 28C67 25.7175 68.1322 23.9462 69.4142 22.6642C70.0498 22.0286 70.6907 21.5474 71.1719 21.2266C71.4108 21.0673 71.6057 20.9507 71.7345 20.8771C71.7987 20.8404 71.8461 20.8146 71.8738 20.7998L71.9001 20.786L71.899 20.7866L71.897 20.7876L71.8958 20.7882Z" fill="#FFA384"/>
<path fill-rule="evenodd" clip-rule="evenodd" d="M59.8958 20.7882C59.8951 20.7885 59.8944 20.7888 59 19C58.1056 17.2111 58.1049 17.2115 58.1041 17.2119L58.1025 17.2127L58.0989 17.2145L58.0899 17.219L58.0655 17.2315C58.0464 17.2414 58.0216 17.2544 57.9914 17.2704C57.9312 17.3025 57.8497 17.3471 57.7499 17.4041C57.5506 17.518 57.2767 17.6827 56.9531 17.8984C56.3093 18.3276 55.4502 18.9713 54.5858 19.8358C52.8678 21.5538 51 24.2825 51 28C51 29.8694 51.4787 31.3186 52.2965 32.4923C53.0583 33.5857 54.0484 34.3282 54.7727 34.8714L54.7999 34.8918C55.6031 35.4942 56.0954 35.8726 56.4507 36.3563C56.7449 36.7567 57 37.3149 57 38.3335C57 40.4616 55.8595 42.4205 54.4971 43.9721C53.8345 44.7267 53.1671 45.3297 52.6656 45.743C52.4162 45.9485 52.2116 46.104 52.0743 46.2048C52.0057 46.2552 51.9541 46.2917 51.9225 46.3138L51.8904 46.3359C51.8877 46.3378 51.8863 46.3387 51.8864 46.3387L51.8874 46.338L51.8896 46.3365C51.8901 46.3362 51.8906 46.3359 53 48C54.1094 49.6641 54.11 49.6637 54.1105 49.6633L54.1148 49.6605L54.1223 49.6554L54.144 49.6407C54.1612 49.629 54.1841 49.6132 54.2123 49.5936C54.2685 49.5543 54.3459 49.4993 54.4414 49.4292C54.6321 49.2892 54.8963 49.088 55.2094 48.8299C55.8329 48.3161 56.6655 47.565 57.5029 46.6113C59.1405 44.7463 61 41.8719 61 38.3335C61 36.519 60.5051 35.1189 59.6743 33.988C58.9472 32.9984 58.0076 32.2958 57.3185 31.7805C57.2781 31.7503 57.2386 31.7208 57.2001 31.6919C56.4266 31.1118 55.9321 30.7132 55.5785 30.2057C55.2713 29.7647 55 29.1305 55 28C55 25.7175 56.1322 23.9462 57.4142 22.6642C58.0498 22.0286 58.6907 21.5474 59.1719 21.2266C59.4108 21.0673 59.6057 20.9507 59.7345 20.8771C59.7987 20.8404 59.8461 20.8146 59.8738 20.7998L59.9001 20.786L59.899 20.7866L59.897 20.7876L59.8958 20.7882ZM59.9018 20.7851C59.9018 20.7851 59.9013 20.7854 59.9001 20.786L59.9018 20.7851Z" fill="#FFA384"/>
</svg>
