<svg width="120" height="120" viewBox="0 0 120 120" fill="none" xmlns="http://www.w3.org/2000/svg">
<g clip-path="url(#clip0)">
<path d="M64.3978 30.1807C48.6442 27.4744 34.371 55.834 29.2036 70.352C25.4328 103.757 48.8956 103.758 65.6547 100.798C82.4138 97.8378 99.5919 63.1636 98.335 43.2894C97.078 23.4152 84.0897 33.5636 64.3978 30.1807Z" fill="#E3FFE1"/>
<ellipse cx="79.8" cy="19.8" rx="12.6" ry="12.6" fill="#84E47E"/>
<path d="M79.5273 52.3635C79.5273 51.1585 80.5041 50.1816 81.7091 50.1816C82.9141 50.1816 83.8909 51.1585 83.8909 52.3635H79.5273Z" fill="black"/>
<path d="M66.4364 78.5453C66.4364 77.3403 67.4132 76.3635 68.6182 76.3635C69.8232 76.3635 70.8 77.3403 70.8 78.5453H66.4364Z" fill="black"/>
<path d="M40.2545 78.5453C40.2545 77.3403 41.2314 76.3635 42.4364 76.3635C43.6413 76.3635 44.6182 77.3403 44.6182 78.5453H40.2545Z" fill="black"/>
<path d="M53.3455 95.9998C53.3455 94.7948 54.3223 93.818 55.5273 93.818C56.7323 93.818 57.7091 94.7948 57.7091 95.9998H53.3455Z" fill="black"/>
<path d="M27.1636 87.2725C27.1636 88.4775 26.1868 89.4544 24.9818 89.4544C23.7768 89.4544 22.8 88.4775 22.8 87.2725H27.1636Z" fill="black"/>
<path fill-rule="evenodd" clip-rule="evenodd" d="M40.2545 113.454V78.5453H44.6182V113.435C44.6185 113.443 44.6193 113.461 44.6212 113.486C44.6255 113.548 44.6354 113.65 44.6567 113.777C44.701 114.044 44.7857 114.365 44.9333 114.66C45.0766 114.947 45.2573 115.167 45.4875 115.321C45.7041 115.465 46.0909 115.636 46.8 115.636C47.4521 115.636 47.8043 115.534 47.9822 115.453C48.1364 115.384 48.2273 115.303 48.3129 115.183C48.4184 115.036 48.5351 114.801 48.6626 114.398C48.7644 114.076 48.8437 113.752 48.9427 113.348C48.9749 113.216 49.0092 113.076 49.047 112.925L53.4106 95.4706L57.6439 96.529L53.2803 113.984C53.2552 114.084 53.229 114.194 53.2007 114.312C52.983 115.225 52.6494 116.624 51.8598 117.725C50.7705 119.245 49.0721 120 46.8 120C45.3273 120 44.0777 119.625 43.067 118.952C42.07 118.287 41.4325 117.416 41.0303 116.612C40.6325 115.816 40.4444 115.047 40.3524 114.495C40.3056 114.214 40.2813 113.975 40.2686 113.797C40.2623 113.708 40.2587 113.634 40.2568 113.576C40.2559 113.547 40.2553 113.522 40.255 113.502L40.2546 113.475L40.2546 113.464L40.2545 113.459L40.2545 113.457C40.2545 113.457 40.2545 113.454 42.4364 113.454H40.2545Z" fill="black"/>
<path fill-rule="evenodd" clip-rule="evenodd" d="M70.8 113.454V78.5453H66.4364V113.435C66.436 113.443 66.4352 113.461 66.4334 113.486C66.429 113.548 66.4192 113.65 66.3979 113.777C66.3535 114.044 66.2688 114.365 66.1212 114.66C65.9779 114.947 65.7972 115.167 65.567 115.321C65.3505 115.465 64.9637 115.636 64.2545 115.636C63.6707 115.636 63.3597 115.524 63.1993 115.439C63.0442 115.357 62.9159 115.24 62.7879 115.046C62.6465 114.832 62.5172 114.543 62.3818 114.137C62.3148 113.936 62.2537 113.73 62.1851 113.496L62.1732 113.456C62.1187 113.27 62.056 113.057 61.9884 112.849L57.6439 95.4706L53.4106 96.529L57.7946 114.065L57.8211 114.144C57.8737 114.302 57.926 114.48 57.9964 114.72L57.9986 114.727C58.0659 114.956 58.1472 115.232 58.2421 115.516C58.4305 116.082 58.7034 116.781 59.1485 117.454C59.6068 118.146 60.249 118.813 61.1541 119.294C62.054 119.771 63.0929 120 64.2545 120C65.7272 120 66.9768 119.625 67.9875 118.952C68.9846 118.287 69.6221 117.416 70.0242 116.612C70.4221 115.816 70.6101 115.047 70.7021 114.495C70.749 114.214 70.7733 113.975 70.7859 113.797C70.7923 113.708 70.7958 113.634 70.7977 113.576C70.7987 113.547 70.7993 113.522 70.7996 113.502L70.7999 113.475L70.8 113.464L70.8 113.459L70.8 113.457C70.8 113.457 70.8 113.454 68.6182 113.454H70.8Z" fill="black"/>
<path fill-rule="evenodd" clip-rule="evenodd" d="M64.2569 71.9998C64.2569 71.9998 64.2545 71.9998 64.2545 69.818V71.9998H42.4364C38.4543 71.9998 35.6152 72.989 33.5601 74.3663C31.4914 75.7526 30.0834 77.6224 29.1211 79.5771C27.1661 83.5483 27.1636 87.6358 27.1636 87.818H22.8V87.8169C22.8 87.445 22.8 82.5374 25.2062 77.6498C26.4257 75.1726 28.2904 72.6448 31.1308 70.7413C33.9848 68.8288 37.6911 67.6362 42.4364 67.6362H64.2545L64.2694 67.6359C64.2904 67.6356 64.3269 67.6348 64.3779 67.6331C64.48 67.6297 64.6398 67.6226 64.8491 67.6076C65.2684 67.5777 65.8816 67.5167 66.6231 67.3931C68.1166 67.1442 70.0745 66.6505 72.0061 65.6847C73.9291 64.7232 75.7857 63.3152 77.1664 61.2441C78.5381 59.1866 79.5273 56.3453 79.5273 52.3635H83.8909C83.8909 57.1089 82.6983 60.813 80.7972 63.6646C78.9052 66.5026 76.3982 68.3673 73.9576 69.5877C71.5254 70.8037 69.1198 71.4009 67.3405 71.6974C66.4457 71.8465 65.6953 71.922 65.16 71.9602C64.892 71.9793 64.6768 71.9892 64.5233 71.9943C64.4464 71.9969 64.3849 71.9983 64.3398 71.999L64.2845 71.9997L64.2663 71.9998L64.2569 71.9998Z" fill="black"/>
<path fill-rule="evenodd" clip-rule="evenodd" d="M55.5273 61.0907C60.3472 61.0907 64.2545 57.1834 64.2545 52.3635C64.2545 47.5435 60.3472 43.6362 55.5273 43.6362C50.7073 43.6362 46.8 47.5435 46.8 52.3635C46.8 57.1834 50.7073 61.0907 55.5273 61.0907ZM55.5273 65.4544C62.7572 65.4544 68.6182 59.5934 68.6182 52.3635C68.6182 45.1335 62.7572 39.2725 55.5273 39.2725C48.2974 39.2725 42.4364 45.1335 42.4364 52.3635C42.4364 59.5934 48.2974 65.4544 55.5273 65.4544Z" fill="black"/>
<path fill-rule="evenodd" clip-rule="evenodd" d="M80.9373 35.6799C80.9373 35.6799 80.9376 35.6802 81.7091 34.9089C82.4805 34.1376 82.4809 34.138 82.4809 34.138L82.4824 34.1395L82.4852 34.1422L82.4929 34.1501L82.5176 34.1754C82.5379 34.1964 82.5659 34.2256 82.6004 34.2626C82.6694 34.3366 82.765 34.4418 82.8783 34.5741C83.104 34.8374 83.405 35.2136 83.7077 35.6676C84.2894 36.5402 84.9818 37.854 84.9818 39.2728C84.9818 40.8168 84.157 41.6409 83.5999 42.1975C83.5903 42.2071 83.5808 42.2166 83.5714 42.2261C83.0374 42.76 82.8 43.0252 82.8 43.6365C82.8 44.2477 83.0374 44.5129 83.5714 45.0469C83.5808 45.0563 83.5903 45.0659 83.5999 45.0755C84.157 45.632 84.9818 46.4562 84.9818 48.0001H82.8C82.8 47.3889 82.5626 47.1237 82.0286 46.5897C82.0192 46.5802 82.0096 46.5707 82 46.5611C81.443 46.0046 80.6182 45.1804 80.6182 43.6365C80.6182 42.0925 81.443 41.2684 82 40.7118C82.0096 40.7022 82.0192 40.6927 82.0286 40.6833C82.5626 40.1493 82.8 39.8841 82.8 39.2728C82.8 38.5098 82.4015 37.6417 81.8923 36.8778C81.6495 36.5136 81.4051 36.2079 81.2217 35.9939C81.1305 35.8874 81.0556 35.8051 81.0053 35.7512C80.9802 35.7243 80.9613 35.7046 80.9496 35.6925L80.9373 35.6799Z" fill="black"/>
<path fill-rule="evenodd" clip-rule="evenodd" d="M81.7091 28.3635C88.3365 28.3635 93.7091 22.9909 93.7091 16.3635C93.7091 9.73604 88.3365 4.36345 81.7091 4.36345C75.0817 4.36345 69.7091 9.73604 69.7091 16.3635C69.7091 22.9909 75.0817 28.3635 81.7091 28.3635ZM81.7091 32.7271C90.7465 32.7271 98.0727 25.4008 98.0727 16.3635C98.0727 7.32607 90.7465 -0.000183105 81.7091 -0.000183105C72.6717 -0.000183105 65.3455 7.32607 65.3455 16.3635C65.3455 25.4008 72.6717 32.7271 81.7091 32.7271Z" fill="black"/>
</g>
<defs>
<clipPath id="clip0">
<rect width="120" height="120" fill="white"/>
</clipPath>
</defs>
</svg>
