<svg width="120" height="120" viewBox="0 0 120 120" fill="none" xmlns="http://www.w3.org/2000/svg">
<path d="M83.4633 22.1531C67.2523 10.3011 60.4387 14.9764 48.5011 20.552C47.8187 20.811 43.6264 23.3418 32.3161 31.3927C18.1782 41.4562 33.178 85.082 41.8514 93.5321C50.5248 101.982 95.4797 97.3635 103.271 70.2159C108.313 52.6457 101.184 35.1088 83.4633 22.1531Z" fill="#FEE1FF"/>
<mask id="mask0" mask-type="alpha" maskUnits="userSpaceOnUse" x="18" y="21" width="88" height="68">
<path fill-rule="evenodd" clip-rule="evenodd" d="M35.3862 60.279C35.6728 59.7826 36.1576 59.4253 36.7256 59.3485C40.483 58.8405 44.6484 59.828 48.3048 61.9391C52.5135 64.369 55.7701 68.1272 56.8846 72.286C58.3358 77.7012 62.4318 82.2348 67.3279 85.0617C72.2241 87.8886 78.1982 89.1693 83.6139 87.718C84.1262 87.5807 84.563 87.2455 84.8282 86.7862L104.979 51.8841C105.87 50.341 104.45 48.4911 102.729 48.9523C98.4693 50.0939 93.3078 49.458 88.8934 47.3772C84.4729 45.2934 81.1084 41.916 80.023 37.8658C78.5718 32.4506 74.4757 27.9171 69.5796 25.0903C64.6834 22.2634 58.7093 20.9827 53.2938 22.4338C52.7814 22.5711 52.3446 22.9063 52.0794 23.3656L18.9106 80.8156C18.3584 81.7722 18.6861 82.9953 19.6427 83.5476C20.5993 84.0999 21.8225 83.7722 22.3747 82.8156L35.3862 60.279Z" fill="#18AC91"/>
</mask>
<g mask="url(#mask0)">
<path fill-rule="evenodd" clip-rule="evenodd" d="M60.9207 32.1436C56.1237 29.9985 50.8902 29.6197 46.7587 31.3079L44.0763 24.7338C50.294 22.1933 57.4971 22.9478 63.5928 25.6737C69.6885 28.3996 75.1717 33.3182 77.6797 39.7603C79.3463 44.0411 83.2122 47.7315 88.0092 49.8768C92.8062 52.022 98.0396 52.4007 102.171 50.7124L104.854 57.2863C98.6359 59.8272 91.4328 59.0727 85.3371 56.3467C79.2414 53.6207 73.7583 48.7019 71.2502 42.2599C69.5836 37.9792 65.7178 34.2888 60.9207 32.1436Z" fill="#FF4A73"/>
<path fill-rule="evenodd" clip-rule="evenodd" d="M58.6053 37.7529C53.8082 35.6077 48.5748 35.229 44.4433 36.9171L41.7608 30.3431C47.9786 27.8026 55.1816 28.557 61.2773 31.283C67.373 34.0089 72.8563 38.9275 75.3643 45.3696C77.0309 49.6503 80.8968 53.3408 85.6938 55.486C90.4908 57.6312 95.7241 58.0099 99.8557 56.3216L102.538 62.8956C96.3205 65.4364 89.1174 64.6819 83.0216 61.9559C76.926 59.2299 71.4428 54.3112 68.9348 47.8692C67.2682 43.5884 63.4024 39.8981 58.6053 37.7529Z" fill="#FFA31D"/>
<path fill-rule="evenodd" clip-rule="evenodd" d="M56.2889 43.3573C51.4918 41.2121 46.2584 40.8334 42.1269 42.5215L39.4444 35.9475C45.6622 33.4069 52.8652 34.1614 58.9609 36.8873C65.0566 39.6132 70.5399 44.5318 73.0479 50.9739C74.7145 55.2547 78.5803 58.9452 83.3774 61.0904C88.1744 63.2356 93.4077 63.6143 97.5393 61.926L100.222 68.5C94.004 71.0408 86.8009 70.2863 80.7052 67.5603C74.6095 64.8343 69.1264 59.9156 66.6184 53.4735C64.9518 49.1928 61.086 45.5024 56.2889 43.3573Z" fill="#F9D335"/>
<path fill-rule="evenodd" clip-rule="evenodd" d="M53.9735 48.9647C49.1764 46.8195 43.943 46.4408 39.8114 48.1289L37.129 41.5549C43.3468 39.0143 50.5498 39.7688 56.6455 42.4947C62.7412 45.2206 68.2244 50.1393 70.7325 56.5813C72.3991 60.8621 76.2649 64.5526 81.0619 66.6978C85.8589 68.843 91.0923 69.2217 95.2239 67.5334L97.9065 74.1074C91.6886 76.6482 84.4855 75.8937 78.3898 73.1677C72.2941 70.4417 66.811 65.523 64.303 59.0809C62.6364 54.8002 58.7705 51.1099 53.9735 48.9647Z" fill="#44C7B6"/>
<path fill-rule="evenodd" clip-rule="evenodd" d="M51.658 54.572C46.861 52.4268 41.6275 52.0481 37.496 53.7362L34.8136 47.1622C41.0313 44.6216 48.2344 45.3761 54.3301 48.102C60.4258 50.8279 65.909 55.7466 68.417 62.1886C70.0836 66.4694 73.9495 70.1599 78.7465 72.3051C83.5435 74.4503 88.7769 74.829 92.9085 73.1407L95.5911 79.7147C89.3732 82.2555 82.1701 81.501 76.0744 78.775C69.9787 76.049 64.4956 71.1303 61.9875 64.6882C60.321 60.4075 56.4551 56.7172 51.658 54.572Z" fill="#3193F3"/>
<path fill-rule="evenodd" clip-rule="evenodd" d="M49.3426 60.1803C44.5455 58.0351 39.3121 57.6564 35.1806 59.3445L32.4981 52.7705C38.7159 50.2299 45.9189 50.9844 52.0146 53.7103C58.1103 56.4362 63.5936 61.3548 66.1016 67.7969C67.7682 72.0777 71.6341 75.7682 76.4311 77.9134C81.2281 80.0586 86.4614 80.4373 90.593 78.749L93.2757 85.323C87.0578 87.8638 79.8547 87.1093 73.759 84.3833C67.6633 81.6573 62.1801 76.7386 59.6721 70.2965C58.0055 66.0158 54.1397 62.3254 49.3426 60.1803Z" fill="#A442BC"/>
</g>
<path fill-rule="evenodd" clip-rule="evenodd" d="M56.0011 25.964C55.4331 26.0408 54.9483 26.3981 54.6617 26.8945L39.195 53.6837C38.8054 54.3584 39.3038 55.2102 40.0811 55.2632C43.6447 55.5059 47.193 56.6781 50.3057 58.4752C55.2019 61.3021 59.2979 65.8356 60.7491 71.2508C61.8636 75.4096 65.1202 79.1679 69.3288 81.5979C72.9853 83.709 77.1507 84.6965 80.9082 84.1884C81.4762 84.1116 81.9609 83.7542 82.2475 83.2578L98.5178 55.0768C98.9141 54.3904 98.3915 53.5272 97.5992 53.5052C94.0339 53.4066 90.4127 52.5153 87.1887 50.9956C82.0665 48.5811 77.6405 44.4253 76.1601 38.9015C75.0457 34.7427 71.789 30.9845 67.5804 28.5546C63.9239 26.4435 59.7585 25.456 56.0011 25.964ZM35.3871 60.2793C35.6737 59.7829 36.1584 59.4255 36.7264 59.3487C40.4838 58.8408 44.6492 59.8282 48.3057 61.9393C52.5143 64.3693 55.771 68.1275 56.8855 72.2862C58.3367 77.7015 62.4326 82.235 67.3288 85.0619C72.2249 87.8889 78.199 89.1696 83.6147 87.7183C84.127 87.581 84.5639 87.2458 84.8291 86.7864L104.98 51.8844C105.871 50.3412 104.451 48.4913 102.73 48.9525C98.4701 50.0941 93.3087 49.4583 88.8943 47.3774C84.4737 45.2937 81.1092 41.9162 80.0238 37.8661C78.5726 32.4508 74.4766 27.9174 69.5804 25.0905C64.6842 22.2636 58.7101 20.983 53.2946 22.434C52.7823 22.5713 52.3454 22.9065 52.0802 23.3659L18.9115 80.8158C18.3592 81.7724 18.6869 82.9956 19.6435 83.5479C20.6001 84.1001 21.8233 83.7724 22.3756 82.8158L35.3871 60.2793Z" fill="#061134"/>
</svg>
