<svg width="41" height="40" viewBox="0 0 41 40" fill="none" xmlns="http://www.w3.org/2000/svg">
<path d="M11.8417 17.9917C14.2417 22.7083 18.1 26.5667 22.825 28.9667L26.4917 25.2917C26.95 24.8333 27.6083 24.7 28.1833 24.8833C30.05 25.5 32.0583 25.8333 34.1333 25.8333C35.0583 25.8333 35.8 26.575 35.8 27.5V33.3333C35.8 34.2583 35.0583 35 34.1333 35C18.4833 35 5.79999 22.3167 5.79999 6.66667C5.79999 5.74167 6.54999 5 7.46665 5H13.3C14.225 5 14.9667 5.74167 14.9667 6.66667C14.9667 8.74167 15.3 10.75 15.9167 12.6167C16.1 13.1917 15.9667 13.85 15.5083 14.3083L11.8417 17.9917V17.9917Z" fill="#DBEBE6"/>
</svg>
