<svg width="56" height="56" viewBox="0 0 56 56" fill="none" xmlns="http://www.w3.org/2000/svg">
<circle cx="31.1111" cy="29.5556" r="20.2222" fill="#FEF3DE"/>
<path d="M27.8816 26.0988C24.068 25.079 22.8415 24.0333 22.8415 22.3914C22.8415 20.5074 24.53 19.1852 27.3776 19.1852C30.3681 19.1852 31.4769 20.6543 31.5777 22.8148H35.2906C35.1814 19.8333 33.4089 17.1198 29.8977 16.2296V12.4444H24.8576V16.1778C21.5983 16.9123 18.9775 19.0728 18.9775 22.4173C18.9775 26.4099 22.1947 28.3975 26.8736 29.5556C31.0821 30.5926 31.9137 32.1049 31.9137 33.7296C31.9137 34.9136 31.0989 36.8148 27.3776 36.8148C23.9168 36.8148 22.5475 35.2161 22.3711 33.1852H18.6667C18.8767 36.9704 21.6235 39.0877 24.8576 39.8049V43.5556H29.8977V39.8395C33.1653 39.1914 35.7778 37.2469 35.7778 33.6951C35.7778 28.8037 31.6953 27.1272 27.8816 26.0988Z" fill="#061134"/>
<path fill-rule="evenodd" clip-rule="evenodd" d="M28 49.7778C40.0275 49.7778 49.7778 40.0275 49.7778 28C49.7778 15.9725 40.0275 6.22222 28 6.22222C15.9725 6.22222 6.22222 15.9725 6.22222 28C6.22222 40.0275 15.9725 49.7778 28 49.7778ZM28 56C43.464 56 56 43.464 56 28C56 12.536 43.464 0 28 0C12.536 0 0 12.536 0 28C0 43.464 12.536 56 28 56Z" fill="#061134"/>
<rect x="7" y="15" width="49" height="4" transform="rotate(30 7 15)" fill="#061134"/>
</svg>
