<svg width="56" height="56" viewBox="0 0 56 56" fill="none" xmlns="http://www.w3.org/2000/svg">
<circle cx="31.1111" cy="29.5556" r="20.2222" fill="#E1EFFF"/>
<path fill-rule="evenodd" clip-rule="evenodd" d="M28 49.7778C40.0275 49.7778 49.7778 40.0275 49.7778 28C49.7778 15.9725 40.0275 6.22222 28 6.22222C15.9725 6.22222 6.22222 15.9725 6.22222 28C6.22222 40.0275 15.9725 49.7778 28 49.7778ZM28 56C43.464 56 56 43.464 56 28C56 12.536 43.464 0 28 0C12.536 0 0 12.536 0 28C0 43.464 12.536 56 28 56Z" fill="#061134"/>
<path d="M28 36.619C29.65 36.619 31 35.2905 31 33.6667C31 32.0429 29.65 30.7143 28 30.7143C26.35 30.7143 25 32.0429 25 33.6667C25 35.2905 26.35 36.619 28 36.619ZM37 23.3333H35.5V20.381C35.5 16.3067 32.14 13 28 13C23.86 13 20.5 16.3067 20.5 20.381V23.3333H19C17.35 23.3333 16 24.6619 16 26.2857V41.0476C16 42.6714 17.35 44 19 44H37C38.65 44 40 42.6714 40 41.0476V26.2857C40 24.6619 38.65 23.3333 37 23.3333ZM23.35 20.381C23.35 17.8567 25.435 15.8048 28 15.8048C30.565 15.8048 32.65 17.8567 32.65 20.381V23.3333H23.35V20.381ZM37 41.0476H19V26.2857H37V41.0476Z" fill="#061134"/>
</svg>
