<svg width="40" height="40" viewBox="0 0 40 40" fill="none" xmlns="http://www.w3.org/2000/svg">
<g clip-path="url(#clip0)">
<path opacity="0.7" d="M40 18.1818C40 28.2234 31.8597 36.3636 21.8182 36.3636C11.7766 36.3636 3.63637 28.2234 3.63637 18.1818C3.63637 8.14028 11.7766 0 21.8182 0C31.8597 0 40 8.14028 40 18.1818Z" fill="#D1E6DF"/>
<path fill-rule="evenodd" clip-rule="evenodd" d="M20 37.3333C29.5729 37.3333 37.3333 29.5729 37.3333 20C37.3333 10.4271 29.5729 2.66667 20 2.66667C10.4271 2.66667 2.66667 10.4271 2.66667 20C2.66667 29.5729 10.4271 37.3333 20 37.3333ZM40 20C40 31.0457 31.0457 40 20 40C8.95431 40 0 31.0457 0 20C0 8.95431 8.95431 0 20 0C31.0457 0 40 8.95431 40 20Z" fill="#061134"/>
<path fill-rule="evenodd" clip-rule="evenodd" d="M30.2761 9.72394C30.6533 10.1011 30.7694 10.6667 30.5713 11.1619L25.238 24.4953C25.1025 24.8341 24.834 25.1025 24.4952 25.238L11.1619 30.5714C10.6666 30.7695 10.101 30.6534 9.72386 30.2762C9.34671 29.8991 9.23061 29.3334 9.4287 28.8382L14.762 15.5049C14.8976 15.1661 15.166 14.8976 15.5048 14.7621L28.8382 9.42878C29.3334 9.23069 29.899 9.34679 30.2761 9.72394ZM17.0258 17.0258L13.0601 26.94L22.9743 22.9743L26.9399 13.0602L17.0258 17.0258Z" fill="#061134"/>
<path d="M22 20C22 21.1046 21.1046 22 20 22C18.8954 22 18 21.1046 18 20C18 18.8954 18.8954 18 20 18C21.1046 18 22 18.8954 22 20Z" fill="#061134"/>
</g>
<defs>
<clipPath id="clip0">
<rect width="40" height="40" fill="white"/>
</clipPath>
</defs>
</svg>
