<svg width="231" height="64" viewBox="0 0 231 64" fill="none" xmlns="http://www.w3.org/2000/svg">
<path d="M43.248 0.499905C42.8778 -0.0522991 42.3229 0.00142543 42.3229 0.00142543H21.6281C21.6281 0.00142543 21.0533 -0.0447606 20.6862 0.504761C20.3191 1.05427 20.5325 1.60071 20.5325 1.60071L25.2913 13.6117C25.2913 13.6117 25.3735 13.7931 25.5245 13.9672C25.6756 14.1412 25.8543 14.2566 25.8543 14.2566L31.5152 17.2543C31.5152 17.2543 31.7007 17.3478 31.9524 17.3526C32.204 17.3576 32.4631 17.2388 32.4631 17.2388L38.0907 14.2617C38.0907 14.2617 38.2754 14.1643 38.4385 13.9749C38.6016 13.7855 38.6632 13.6072 38.6632 13.6072L43.3966 1.60516C43.3966 1.60516 43.6182 1.05211 43.248 0.499905Z" fill="white"/>
<path d="M43.248 63.1508C42.8778 63.703 42.3229 63.6493 42.3229 63.6493H21.6281C21.6281 63.6493 21.0533 63.6955 20.6862 63.146C20.3191 62.5965 20.5325 62.05 20.5325 62.05L25.2913 50.0391C25.2913 50.0391 25.3735 49.8577 25.5245 49.6836C25.6756 49.5095 25.8543 49.3941 25.8543 49.3941L31.5152 46.3964C31.5152 46.3964 31.7007 46.303 31.9524 46.2981C32.204 46.2932 32.4631 46.412 32.4631 46.412L38.0907 49.3891C38.0907 49.3891 38.2754 49.4864 38.4385 49.6758C38.6016 49.8652 38.6632 50.0436 38.6632 50.0436L43.3966 62.0456C43.3966 62.0456 43.6182 62.5986 43.248 63.1508Z" fill="white"/>
<path d="M63.262 20.5618C63.815 20.9314 63.7612 21.4854 63.7612 21.4854V42.1476C63.7612 42.1476 63.8075 42.7215 63.2571 43.088C62.7067 43.4546 62.1594 43.2414 62.1594 43.2414L50.1294 38.4902C50.1294 38.4902 49.9478 38.4082 49.7734 38.2573C49.5991 38.1065 49.4835 37.9281 49.4835 37.9281L46.481 32.2761C46.481 32.2761 46.3875 32.0909 46.3826 31.8396C46.3777 31.5884 46.4966 31.3297 46.4966 31.3297L49.4784 25.711C49.4784 25.711 49.5759 25.5266 49.7656 25.3637C49.9553 25.2009 50.134 25.1394 50.134 25.1394L62.155 20.4134C62.155 20.4134 62.7089 20.1922 63.262 20.5618Z" fill="white"/>
<path d="M0.500704 43.089C-0.0523759 42.7194 0.00142722 42.1654 0.00142722 42.1654V21.5033C0.00142722 21.5033 -0.0448313 20.9294 0.505557 20.5628C1.05594 20.1962 1.60324 20.4094 1.60324 20.4094L13.6332 25.1606C13.6332 25.1606 13.8149 25.2427 13.9892 25.3935C14.1636 25.5443 14.2792 25.7228 14.2792 25.7228L17.2816 31.3747C17.2816 31.3747 17.3752 31.5599 17.3801 31.8112C17.385 32.0624 17.2661 32.3211 17.2661 32.3211L14.2843 37.9399C14.2843 37.9399 14.1867 38.1243 13.997 38.2871C13.8073 38.4499 13.6287 38.5114 13.6287 38.5114L1.60769 43.2374C1.60769 43.2374 1.05378 43.4586 0.500704 43.089Z" fill="white"/>
<path d="M17.7331 1.65018C17.0802 1.52104 16.7259 1.95078 16.7259 1.95078L2.09246 16.5611C2.09246 16.5611 1.65332 16.9342 1.78289 17.582C1.91246 18.2298 2.45041 18.4655 2.45041 18.4655L14.3218 23.5989C14.3218 23.5989 14.5084 23.6691 14.7385 23.6855C14.9686 23.702 15.1767 23.6574 15.1767 23.6574L21.3026 21.7806C21.3026 21.7806 21.5 21.7157 21.6814 21.5414C21.8628 21.3672 21.9619 21.1004 21.9619 21.1004L23.8328 15.0222C23.8328 15.0222 23.8944 14.823 23.8756 14.5739C23.8568 14.3248 23.774 14.1552 23.774 14.1552L18.6209 2.32675C18.6209 2.32675 18.3859 1.7793 17.7331 1.65018Z" fill="white"/>
<path d="M62.1041 45.9513C62.2334 46.6031 61.803 46.9569 61.803 46.9569L47.1696 61.5672C47.1696 61.5672 46.7958 62.0057 46.147 61.8763C45.4982 61.7469 45.2622 61.2098 45.2622 61.2098L40.1207 49.3572C40.1207 49.3572 40.0503 49.1709 40.0339 48.9411C40.0174 48.7114 40.062 48.5036 40.062 48.5036L41.9418 42.3874C41.9418 42.3874 42.0069 42.1904 42.1814 42.0093C42.3558 41.8282 42.6231 41.7292 42.6231 41.7292L48.7109 39.8612C48.7109 39.8612 48.9105 39.7997 49.1599 39.8185C49.4094 39.8372 49.5792 39.92 49.5792 39.92L61.4264 45.0649C61.4264 45.0649 61.9748 45.2995 62.1041 45.9513Z" fill="white"/>
<path d="M46.0937 1.70645C46.7465 1.57732 47.1008 2.00705 47.1008 2.00705L61.7343 16.6174C61.7343 16.6174 62.1734 16.9905 62.0438 17.6383C61.9143 18.2861 61.3763 18.5217 61.3763 18.5217L49.5049 23.6551C49.5049 23.6551 49.3183 23.7254 49.0882 23.7418C48.8581 23.7583 48.65 23.7137 48.65 23.7137L42.5241 21.8369C42.5241 21.8369 42.3268 21.7719 42.1454 21.5977C41.964 21.4235 41.8649 21.1567 41.8649 21.1567L39.994 15.0785C39.994 15.0785 39.9323 14.8792 39.9511 14.6302C39.97 14.3811 40.0528 14.2115 40.0528 14.2115L45.2058 2.38304C45.2058 2.38304 45.4408 1.83557 46.0937 1.70645Z" fill="white"/>
<path d="M17.6692 61.9446C17.0164 62.0737 16.6621 61.644 16.6621 61.644L2.02861 47.0337C2.02861 47.0337 1.58947 46.6606 1.71905 46.0128C1.84862 45.365 2.38657 45.1294 2.38657 45.1294L14.258 39.996C14.258 39.996 14.4446 39.9257 14.6747 39.9093C14.9048 39.8928 15.1129 39.9374 15.1129 39.9374L21.2388 41.8142C21.2388 41.8142 21.4361 41.8791 21.6175 42.0534C21.7989 42.2276 21.898 42.4944 21.898 42.4944L23.7689 48.5726C23.7689 48.5726 23.8306 48.7719 23.8117 49.0209C23.7929 49.27 23.7101 49.4396 23.7101 49.4396L18.5571 61.268C18.5571 61.268 18.3221 61.8155 17.6692 61.9446Z" fill="white"/>
<path d="M88.6976 34.246L83.8867 39.1243V45.9165H80.1282V19.6484H83.8867V34.321L98.1691 19.6484H102.454L91.2158 31.4691L103.168 45.9165H98.7704L88.6976 34.246Z" fill="white"/>
<path d="M112.501 25.8401C115.257 25.8401 117.362 26.5156 118.815 27.8665C120.294 29.2174 121.033 31.2313 121.033 33.9081V45.9164H117.613V43.2896C117.011 44.2152 116.147 44.9282 115.019 45.4285C113.917 45.9039 112.601 46.1415 111.073 46.1415C108.843 46.1415 107.051 45.6036 105.698 44.5279C104.37 43.4522 103.706 42.0387 103.706 40.2875C103.706 38.5363 104.345 37.1353 105.623 36.0846C106.901 35.0089 108.931 34.471 111.712 34.471H117.425V33.758C117.425 32.207 116.974 31.0186 116.072 30.1931C115.17 29.3675 113.842 28.9547 112.088 28.9547C110.91 28.9547 109.757 29.1549 108.63 29.5551C107.502 29.9304 106.55 30.4432 105.773 31.0937L104.27 28.3918C105.297 27.5663 106.525 26.9408 107.953 26.5156C109.382 26.0652 110.898 25.8401 112.501 25.8401ZM111.674 43.3646C113.052 43.3646 114.243 43.0644 115.245 42.464C116.247 41.8386 116.974 40.963 117.425 39.8372V37.0603H111.862C108.805 37.0603 107.277 38.086 107.277 40.1374C107.277 41.1381 107.665 41.9261 108.442 42.5015C109.219 43.0769 110.296 43.3646 111.674 43.3646Z" fill="white"/>
<path d="M126.856 18.0726H130.464V45.9167H126.856V18.0726Z" fill="white"/>
<path d="M154.501 36.0846C154.501 36.3598 154.476 36.7226 154.426 37.1729H138.264C138.49 38.9241 139.254 40.3375 140.557 41.4133C141.885 42.464 143.526 42.9894 145.481 42.9894C147.861 42.9894 149.778 42.1888 151.231 40.5877L153.223 42.9143C152.321 43.965 151.194 44.7656 149.841 45.3159C148.513 45.8663 147.022 46.1415 145.368 46.1415C143.263 46.1415 141.397 45.7162 139.768 44.8656C138.139 43.99 136.874 42.7767 135.972 41.2257C135.095 39.6746 134.656 37.9234 134.656 35.972C134.656 34.0457 135.082 32.307 135.934 30.756C136.811 29.2049 138.001 28.0041 139.505 27.1535C141.033 26.2779 142.75 25.8401 144.654 25.8401C146.558 25.8401 148.25 26.2779 149.728 27.1535C151.231 28.0041 152.396 29.2049 153.223 30.756C154.075 32.307 154.501 34.0832 154.501 36.0846ZM144.654 28.8797C142.925 28.8797 141.472 29.405 140.294 30.4558C139.141 31.5065 138.465 32.8824 138.264 34.5836H151.043C150.843 32.9074 150.154 31.544 148.976 30.4933C147.824 29.4175 146.383 28.8797 144.654 28.8797Z" fill="white"/>
<path d="M158.62 26.0279H162.228V45.9165H158.62V26.0279ZM160.424 22.2002C159.722 22.2002 159.133 21.9751 158.657 21.5248C158.206 21.0745 157.981 20.5241 157.981 19.8736C157.981 19.2232 158.206 18.6728 158.657 18.2225C159.133 17.7472 159.722 17.5095 160.424 17.5095C161.125 17.5095 161.702 17.7347 162.153 18.185C162.629 18.6103 162.867 19.1481 162.867 19.7986C162.867 20.4741 162.629 21.0495 162.153 21.5248C161.702 21.9751 161.125 22.2002 160.424 22.2002Z" fill="white"/>
<path d="M187.055 18.0726V45.9168H183.597V42.7646C182.795 43.8653 181.78 44.7034 180.553 45.2788C179.325 45.8542 177.972 46.1419 176.493 46.1419C174.564 46.1419 172.835 45.7166 171.307 44.866C169.778 44.0155 168.576 42.8271 167.699 41.3011C166.847 39.75 166.421 37.9738 166.421 35.9724C166.421 33.971 166.847 32.2073 167.699 30.6813C168.576 29.1552 169.778 27.9669 171.307 27.1163C172.835 26.2658 174.564 25.8405 176.493 25.8405C177.922 25.8405 179.237 26.1157 180.44 26.666C181.643 27.1914 182.645 27.9794 183.447 29.0302V18.0726H187.055ZM176.794 42.9897C178.047 42.9897 179.187 42.702 180.214 42.1267C181.242 41.5262 182.044 40.7007 182.62 39.6499C183.196 38.5742 183.484 37.3484 183.484 35.9724C183.484 34.5965 183.196 33.3831 182.62 32.3324C182.044 31.2567 181.242 30.4311 180.214 29.8557C179.187 29.2803 178.047 28.9926 176.794 28.9926C175.516 28.9926 174.364 29.2803 173.336 29.8557C172.334 30.4311 171.532 31.2567 170.931 32.3324C170.355 33.3831 170.066 34.5965 170.066 35.9724C170.066 37.3484 170.355 38.5742 170.931 39.6499C171.532 40.7007 172.334 41.5262 173.336 42.1267C174.364 42.702 175.516 42.9897 176.794 42.9897Z" fill="white"/>
<path d="M201.559 46.1415C199.58 46.1415 197.801 45.7037 196.222 44.8281C194.643 43.9525 193.403 42.7517 192.501 41.2257C191.624 39.6746 191.186 37.9234 191.186 35.972C191.186 34.0207 191.624 32.282 192.501 30.756C193.403 29.2049 194.643 28.0041 196.222 27.1535C197.801 26.2779 199.58 25.8401 201.559 25.8401C203.539 25.8401 205.305 26.2779 206.859 27.1535C208.437 28.0041 209.665 29.2049 210.542 30.756C211.444 32.282 211.895 34.0207 211.895 35.972C211.895 37.9234 211.444 39.6746 210.542 41.2257C209.665 42.7517 208.437 43.9525 206.859 44.8281C205.305 45.7037 203.539 46.1415 201.559 46.1415ZM201.559 42.9894C202.837 42.9894 203.977 42.7017 204.979 42.1263C206.007 41.5259 206.808 40.7003 207.385 39.6496C207.961 38.5738 208.249 37.348 208.249 35.972C208.249 34.5961 207.961 33.3828 207.385 32.332C206.808 31.2563 206.007 30.4307 204.979 29.8553C203.977 29.2799 202.837 28.9923 201.559 28.9923C200.281 28.9923 199.129 29.2799 198.101 29.8553C197.099 30.4307 196.297 31.2563 195.696 32.332C195.119 33.3828 194.831 34.5961 194.831 35.972C194.831 37.348 195.119 38.5738 195.696 39.6496C196.297 40.7003 197.099 41.5259 198.101 42.1263C199.129 42.7017 200.281 42.9894 201.559 42.9894Z" fill="white"/>
<path d="M221.743 46.1415C220.114 46.1415 218.548 45.9289 217.045 45.5036C215.541 45.0533 214.364 44.4904 213.512 43.8149L215.015 40.963C215.892 41.5884 216.957 42.0887 218.21 42.464C219.463 42.8392 220.728 43.0269 222.006 43.0269C225.163 43.0269 226.742 42.1263 226.742 40.325C226.742 39.7246 226.529 39.2493 226.103 38.8991C225.677 38.5488 225.138 38.2986 224.487 38.1485C223.86 37.9734 222.958 37.7858 221.78 37.5856C220.177 37.3355 218.861 37.0478 217.834 36.7226C216.832 36.3973 215.967 35.847 215.241 35.0714C214.514 34.2959 214.151 33.2076 214.151 31.8067C214.151 30.0054 214.902 28.567 216.406 27.4912C217.909 26.3905 219.926 25.8401 222.457 25.8401C223.785 25.8401 225.113 26.0027 226.441 26.3279C227.769 26.6531 228.859 27.0909 229.711 27.6413L228.17 30.4933C226.541 29.4426 224.624 28.9172 222.419 28.9172C220.891 28.9172 219.726 29.1674 218.924 29.6677C218.122 30.1681 217.721 30.831 217.721 31.6566C217.721 32.307 217.947 32.8199 218.398 33.1951C218.849 33.5704 219.4 33.8456 220.052 34.0207C220.728 34.1958 221.668 34.396 222.87 34.6211C224.474 34.8963 225.764 35.1965 226.742 35.5217C227.744 35.8219 228.596 36.3473 229.297 37.0978C229.999 37.8483 230.35 38.8991 230.35 40.25C230.35 42.0512 229.573 43.4897 228.02 44.5654C226.491 45.6162 224.399 46.1415 221.743 46.1415Z" fill="white"/>
</svg>
